<svg width="36" height="36" viewBox="0 0 36 36" fill="none" xmlns="http://www.w3.org/2000/svg">
<path d="M2.30736 16.027L5.0981 13.2362L5.10101 13.2333H10.3513L8.26225 15.3224L7.72288 15.8617L5.5836 18.001L5.84855 18.2667L17.8333 30.2507L30.083 18.001L27.943 15.8617L27.7923 15.7103L25.3153 13.2333H30.5656L30.5685 13.2362L32.7558 15.4235L35.3333 18.001L17.8333 35.501L0.333313 18.001L2.30736 16.027ZM17.8333 0.501007L27.9452 10.6129H22.6949L17.8333 5.7513L12.9717 10.6129H7.72142L17.8333 0.501007Z" fill="#096DD9"/>
<path d="M5.58351 18.001L7.72278 15.8617L8.26215 15.3224L6.17383 13.2333H5.10092L5.098 13.2362L2.30727 16.027L4.98591 18.6925L5.58351 18.001Z" fill="url(#paint0_linear_109177_282455)"/>
<path d="M27.9429 15.8617L30.0829 18.001L29.8711 18.2128L29.8718 18.2135L32.7557 15.4235L30.5684 13.2362L30.5655 13.2333H30.353L27.7922 15.7103L27.9429 15.8617Z" fill="url(#paint1_linear_109177_282455)"/>
<path d="M5.09503 13.2333L5.09794 13.2362L7.72272 15.8617L17.8332 25.9714L30.5713 13.2333H5.09503Z" fill="#1890FF"/>
<defs>
<linearGradient id="paint0_linear_109177_282455" x1="7.12231" y1="13.884" x2="3.43141" y2="17.5749" gradientUnits="userSpaceOnUse">
<stop stop-color="#023B95"/>
<stop offset="0.9637" stop-color="#096CD9" stop-opacity="0"/>
</linearGradient>
<linearGradient id="paint1_linear_109177_282455" x1="28.4146" y1="13.9312" x2="31.3991" y2="17.3227" gradientUnits="userSpaceOnUse">
<stop stop-color="#023B95"/>
<stop offset="1" stop-color="#096DD9" stop-opacity="0"/>
</linearGradient>
</defs>
</svg>
